<mxfile host="app.diagrams.net" agent="Mozilla/5.0 (Macintosh; Intel Mac OS X 10_15_7) AppleWebKit/537.36 (KHTML, like Gecko) Chrome/138.0.0.0 Safari/537.36" version="27.2.0">
  <diagram name="Page-1" id="dx3lY_2Ip6GUPJx0M8Ue">
    <mxGraphModel dx="1339" dy="695" grid="1" gridSize="10" guides="1" tooltips="1" connect="1" arrows="1" fold="1" page="1" pageScale="1" pageWidth="850" pageHeight="1100" math="0" shadow="0">
      <root>
        <mxCell id="0" />
        <mxCell id="1" parent="0" />
        <mxCell id="hOmC9PKJEVMpnFEBVNOn-5" style="edgeStyle=orthogonalEdgeStyle;rounded=0;orthogonalLoop=1;jettySize=auto;html=1;entryX=0;entryY=0.5;entryDx=0;entryDy=0;" edge="1" parent="1" source="hOmC9PKJEVMpnFEBVNOn-1" target="hOmC9PKJEVMpnFEBVNOn-2">
          <mxGeometry relative="1" as="geometry" />
        </mxCell>
        <mxCell id="hOmC9PKJEVMpnFEBVNOn-8" style="edgeStyle=orthogonalEdgeStyle;rounded=0;orthogonalLoop=1;jettySize=auto;html=1;entryX=0;entryY=0.5;entryDx=0;entryDy=0;" edge="1" parent="1" source="hOmC9PKJEVMpnFEBVNOn-1" target="hOmC9PKJEVMpnFEBVNOn-6">
          <mxGeometry relative="1" as="geometry" />
        </mxCell>
        <mxCell id="hOmC9PKJEVMpnFEBVNOn-9" style="edgeStyle=orthogonalEdgeStyle;rounded=0;orthogonalLoop=1;jettySize=auto;html=1;entryX=0;entryY=0.5;entryDx=0;entryDy=0;" edge="1" parent="1" source="hOmC9PKJEVMpnFEBVNOn-1" target="hOmC9PKJEVMpnFEBVNOn-7">
          <mxGeometry relative="1" as="geometry" />
        </mxCell>
        <mxCell id="hOmC9PKJEVMpnFEBVNOn-1" value="Client" style="shape=umlActor;verticalLabelPosition=bottom;verticalAlign=top;html=1;outlineConnect=0;" vertex="1" parent="1">
          <mxGeometry x="40" y="205" width="30" height="60" as="geometry" />
        </mxCell>
        <mxCell id="hOmC9PKJEVMpnFEBVNOn-2" value="Upload File" style="ellipse;whiteSpace=wrap;html=1;" vertex="1" parent="1">
          <mxGeometry x="230" y="100" width="140" height="70" as="geometry" />
        </mxCell>
        <mxCell id="hOmC9PKJEVMpnFEBVNOn-6" value="Get Processing Status" style="ellipse;whiteSpace=wrap;html=1;" vertex="1" parent="1">
          <mxGeometry x="230" y="200" width="140" height="70" as="geometry" />
        </mxCell>
        <mxCell id="hOmC9PKJEVMpnFEBVNOn-7" value="Download Error Report&lt;span style=&quot;background-color: transparent; color: light-dark(rgb(0, 0, 0), rgb(255, 255, 255));&quot;&gt;&amp;nbsp;&lt;/span&gt;" style="ellipse;whiteSpace=wrap;html=1;" vertex="1" parent="1">
          <mxGeometry x="230" y="300" width="140" height="70" as="geometry" />
        </mxCell>
      </root>
    </mxGraphModel>
  </diagram>
</mxfile>
